<svg width="33" height="48" viewBox="0 0 33 48" fill="none" xmlns="http://www.w3.org/2000/svg">
    <path
        d="M31 26H29V14.4438C29 14.167 28.9426 13.8932 28.8314 13.6397C28.7201 13.3862 28.5575 13.1586 28.3538 12.9713L18.3538 3.53626C18.3489 3.532 18.3443 3.5274 18.34 3.52251C17.9718 3.18768 17.492 3.00214 16.9944 3.00214C16.4967 3.00214 16.0169 3.18768 15.6488 3.52251L15.635 3.53626L5.64625 12.9713C5.4425 13.1586 5.27985 13.3862 5.16861 13.6397C5.05737 13.8932 4.99996 14.167 5 14.4438V26H3C2.73478 26 2.48043 26.1054 2.29289 26.2929C2.10536 26.4804 2 26.7348 2 27C2 27.2652 2.10536 27.5196 2.29289 27.7071C2.48043 27.8947 2.73478 28 3 28H31C31.2652 28 31.5196 27.8947 31.7071 27.7071C31.8946 27.5196 32 27.2652 32 27C32 26.7348 31.8946 26.4804 31.7071 26.2929C31.5196 26.1054 31.2652 26 31 26ZM20 26H14V20C14 19.7348 14.1054 19.4804 14.2929 19.2929C14.4804 19.1054 14.7348 19 15 19H19C19.2652 19 19.5196 19.1054 19.7071 19.2929C19.8946 19.4804 20 19.7348 20 20V26Z"
        fill="#0055D3" />
    <path
        d="M7.282 36.63V44H5.786V40.975H2.266V44H0.77V36.63H2.266V39.622H5.786V36.63H7.282ZM11.5986 38.379C13.2046 38.379 14.5576 39.534 14.5576 41.261C14.5576 42.988 13.2046 44.143 11.5986 44.143C9.95964 44.143 8.60664 42.988 8.60664 41.261C8.60664 39.534 9.95964 38.379 11.5986 38.379ZM11.5986 42.9C12.3576 42.9 13.1496 42.284 13.1496 41.261C13.1496 40.238 12.3576 39.622 11.5986 39.622C10.8066 39.622 10.0146 40.238 10.0146 41.261C10.0146 42.284 10.8066 42.9 11.5986 42.9ZM22.7701 38.346C23.9141 38.346 24.9041 39.226 24.9041 40.568V44H23.4631V40.865C23.4631 40.128 22.9901 39.677 22.3851 39.677C21.6151 39.677 21.1091 40.205 21.1091 41.36V44H19.6571V40.865C19.6571 40.128 19.1841 39.677 18.5791 39.677C17.8091 39.677 17.3251 40.205 17.3251 41.36V44H15.8731V38.511H17.3251V38.962C17.7101 38.577 18.2491 38.346 18.9641 38.346C19.7011 38.346 20.3721 38.665 20.7681 39.248C21.2191 38.687 21.8901 38.346 22.7701 38.346ZM31.7155 41.151V41.646H27.5355C27.6785 42.438 28.2395 42.922 28.9105 42.922C29.3395 42.922 29.8785 42.867 30.2745 42.196L31.5725 42.471C31.0885 43.615 30.1095 44.165 28.9105 44.165C27.3595 44.165 26.0945 42.988 26.0945 41.261C26.0945 39.534 27.3595 38.346 28.9325 38.346C30.3955 38.346 31.6605 39.479 31.7155 41.151ZM28.9325 39.611C28.3825 39.611 27.7555 39.941 27.5795 40.623H30.2305C30.0435 39.919 29.5155 39.611 28.9325 39.611Z"
        fill="#0055D3" />
</svg>