<svg width="47" height="47" viewBox="0 0 47 47" fill="none" xmlns="http://www.w3.org/2000/svg">
<path d="M35.845 8.62501C35.7843 8.47508 35.6882 8.3421 35.5649 8.23748C35.4415 8.13286 35.2947 8.05971 35.1369 8.02431C34.979 7.98892 34.815 7.99233 34.6588 8.03425C34.5026 8.07617 34.3589 8.15535 34.24 8.26501L29.2025 12.9138L27.0487 12.4513L26.5862 10.2975L31.235 5.26001C31.3447 5.14112 31.4238 4.99742 31.4658 4.84121C31.5077 4.685 31.5111 4.52096 31.4757 4.36315C31.4403 4.20533 31.3671 4.05846 31.2625 3.93513C31.1579 3.81179 31.0249 3.71567 30.875 3.65501C29.5087 3.1023 28.0275 2.89361 26.5616 3.04728C25.0958 3.20095 23.6901 3.71227 22.4681 4.53632C21.2461 5.36037 20.2452 6.47193 19.5533 7.77332C18.8614 9.07472 18.4997 10.5261 18.5 12C18.4984 13.2446 18.7537 14.4761 19.25 15.6175L11.7237 22.125C11.705 22.14 11.6875 22.1575 11.67 22.1738C10.9198 22.924 10.4983 23.9415 10.4983 25.0025C10.4983 25.5279 10.6018 26.0481 10.8028 26.5334C11.0038 27.0188 11.2985 27.4598 11.67 27.8313C12.0415 28.2027 12.4825 28.4974 12.9678 28.6985C13.4532 28.8995 13.9734 29.003 14.4987 29.003C15.5597 29.003 16.5773 28.5815 17.3275 27.8313C17.3437 27.815 17.3612 27.7963 17.3762 27.7788L23.8825 20.25C25.253 20.8516 26.752 21.1019 28.2436 20.9783C29.7353 20.8546 31.1725 20.3608 32.4253 19.5417C33.678 18.7226 34.7067 17.604 35.4182 16.2871C36.1297 14.9703 36.5015 13.4968 36.5 12C36.5019 10.8432 36.2795 9.69707 35.845 8.62501ZM27.5 19C26.3163 18.9984 25.1523 18.6974 24.1162 18.125C23.9155 18.0141 23.6828 17.9756 23.457 18.0159C23.2313 18.0561 23.0262 18.1728 22.8762 18.3463L15.8887 26.4388C15.5106 26.798 15.0071 26.9953 14.4856 26.9886C13.9641 26.982 13.4658 26.7718 13.097 26.403C12.7282 26.0342 12.518 25.5359 12.5114 25.0144C12.5047 24.4929 12.702 23.9894 13.0612 23.6113L21.1475 16.625C21.3213 16.475 21.4381 16.2697 21.4784 16.0436C21.5187 15.8176 21.48 15.5846 21.3687 15.3838C20.7313 14.2308 20.4321 12.9214 20.5057 11.606C20.5792 10.2906 21.0224 9.02266 21.7844 7.94795C22.5464 6.87324 23.5963 6.03538 24.8132 5.53069C26.0301 5.02601 27.3648 4.875 28.6637 5.09501L24.7637 9.32126C24.6552 9.43898 24.5766 9.58103 24.5344 9.73546C24.4922 9.8899 24.4877 10.0522 24.5212 10.2088L25.2287 13.5C25.2692 13.6882 25.3632 13.8608 25.4993 13.997C25.6355 14.1331 25.808 14.227 25.9962 14.2675L29.29 14.975C29.4465 15.0086 29.6089 15.0041 29.7633 14.9619C29.9177 14.9197 30.0598 14.841 30.1775 14.7325L34.4037 10.8325C34.5722 11.8363 34.52 12.8647 34.2508 13.8462C33.9816 14.8278 33.5017 15.7389 32.8447 16.5162C32.1876 17.2935 31.3692 17.9184 30.4462 18.3473C29.5232 18.7763 28.5178 18.999 27.5 19Z" fill="black"/>
<path d="M3.476 35.465C4.972 35.465 6.105 36.279 6.391 37.588L4.895 37.896C4.785 37.203 4.18 36.752 3.443 36.752C2.695 36.752 2.244 37.17 2.244 37.665C2.244 38.039 2.409 38.303 2.981 38.413L4.565 38.732C5.764 38.985 6.501 39.7 6.501 40.844C6.501 42.274 5.324 43.165 3.575 43.165C2.035 43.165 0.682 42.45 0.495 40.976L2.068 40.657C2.266 41.493 2.882 41.856 3.718 41.856C4.576 41.856 5.027 41.449 5.027 40.921C5.027 40.503 4.829 40.25 4.169 40.118L2.607 39.821C1.727 39.634 0.671 39.15 0.671 37.709C0.671 36.389 1.749 35.465 3.476 35.465ZM13.2179 40.151V40.646H9.03787C9.18087 41.438 9.74187 41.922 10.4129 41.922C10.8419 41.922 11.3809 41.867 11.7769 41.196L13.0749 41.471C12.5909 42.615 11.6119 43.165 10.4129 43.165C8.86187 43.165 7.59687 41.988 7.59687 40.261C7.59687 38.534 8.86187 37.346 10.4349 37.346C11.8979 37.346 13.1629 38.479 13.2179 40.151ZM10.4349 38.611C9.88487 38.611 9.25787 38.941 9.08187 39.623H11.7329C11.5459 38.919 11.0179 38.611 10.4349 38.611ZM18.1161 41.548L18.5341 42.758C17.9621 43.066 17.5661 43.165 17.1041 43.165C15.8061 43.165 14.9481 42.483 14.9481 40.976V38.699H13.7711V37.511H14.9481V35.85H16.4001V37.511H18.1931V38.699H16.4001V40.866C16.4001 41.526 16.7191 41.812 17.2031 41.812C17.4561 41.812 17.8301 41.702 18.1161 41.548ZM23.1056 41.548L23.5236 42.758C22.9516 43.066 22.5556 43.165 22.0936 43.165C20.7956 43.165 19.9376 42.483 19.9376 40.976V38.699H18.7606V37.511H19.9376V35.85H21.3896V37.511H23.1826V38.699H21.3896V40.866C21.3896 41.526 21.7086 41.812 22.1926 41.812C22.4456 41.812 22.8196 41.702 23.1056 41.548ZM25.3231 35.003C25.8291 35.003 26.2031 35.41 26.2031 35.872C26.2031 36.356 25.8291 36.719 25.3231 36.719C24.8061 36.719 24.4431 36.356 24.4431 35.872C24.4431 35.41 24.8061 35.003 25.3231 35.003ZM26.0491 43H24.5971V37.511H26.0491V43ZM31.0666 37.346C32.3866 37.346 33.2666 38.292 33.2666 39.656V43H31.8146V39.964C31.8146 39.194 31.3746 38.677 30.7036 38.677C29.8786 38.677 29.3396 39.227 29.3396 40.569V43H27.8876V37.511H29.3396V38.006C29.7686 37.577 30.3406 37.346 31.0666 37.346ZM40.2319 37.511L40.2429 42.472C40.2429 44.155 39.0769 45.09 37.3059 45.09C36.0299 45.09 35.1059 44.639 34.6329 43.88L35.8099 42.989C36.2389 43.528 36.5909 43.781 37.3059 43.781C38.2299 43.781 38.8349 43.209 38.8349 42.252V42.164C38.4279 42.494 37.8669 42.67 37.1079 42.67C35.7329 42.67 34.4459 41.504 34.4459 39.997C34.4459 38.501 35.7329 37.346 37.1079 37.346C37.8669 37.346 38.4279 37.533 38.8349 37.852V37.511H40.2319ZM37.3609 41.427C38.1309 41.427 38.8349 40.855 38.8349 39.997C38.8349 39.139 38.1309 38.567 37.3609 38.567C36.4919 38.567 35.8429 39.139 35.8429 39.997C35.8429 40.855 36.4919 41.427 37.3609 41.427ZM41.5404 41.548L43.0034 41.251C43.0804 41.812 43.5644 41.999 44.1364 41.999C44.6754 41.999 44.9944 41.757 44.9944 41.449C44.9944 41.251 44.8624 41.053 44.3894 40.954L43.2674 40.723C42.2774 40.514 41.7164 39.953 41.7164 39.161C41.7164 38.105 42.5744 37.346 43.9604 37.346C45.2584 37.346 46.1604 38.017 46.3474 38.974L44.9614 39.249C44.9064 38.809 44.5214 38.49 43.9164 38.49C43.3334 38.49 43.1684 38.776 43.1684 39.029C43.1684 39.205 43.2344 39.392 43.6634 39.491L44.9724 39.777C45.9404 39.986 46.4134 40.591 46.4134 41.328C46.4134 42.538 45.4344 43.165 44.0044 43.165C42.7944 43.165 41.6834 42.692 41.5404 41.548Z" fill="black"/>
</svg>
